<?xml version="1.0" encoding="UTF-8"?>
<svg version="1.1" viewBox="0 0 2048 2048" width="1280" height="1280" xmlns="http://www.w3.org/2000/svg">
<path transform="translate(1596,764)" d="m0 0h247l9 2 8 6 5 6 2 5 1 6v955h155l8 2 6 4 6 7 4 11v13l-4 10-7 8-9 4-11 1h-1990l-9-2-8-6-4-5-5-12v-9l4-11 6-8 9-6 3-1h154v-332l4-10 7-8 9-5 4-1h247l9 2 9 5 6 7 4 9 1 6v327h168v-690l4-11 5-7 10-7 4-1h248l9 3 8 7 5 7 2 6 1 7v686h168v-578l4-10 7-7 10-5h250l9 2 8 6 5 6 2 5 1 7v574h168v-958l4-9 5-6 9-5z" fill="#1473B9"/>
<path transform="translate(1714,244)" d="m0 0h21l19 3 18 6 17 9 11 8 10 9 10 10 11 16 8 16 5 15 3 14 1 9v16l-2 18-6 20-8 16-7 11-10 12-8 7-13 10-19 10-18 6-15 3-8 1h-23l-25-5-15-6-17-9-5-4-4 2-11 9-13 11-11 9-13 11-10 8-11 9-13 11-11 9-13 11-10 8-17 14-13 11-11 9-13 11-10 8-13 11-14 11-10 9-10 8-13 11-10 8-13 11-11 9-2 4 4 8 6 21 2 15v17l-3 19-5 16-9 19-10 14-12 13-10 8-13 8-17 8-18 5-11 2-23 1-18-2-18-5-21-10-14-10-13-12-11-14-9-16-6-16-4-20v-19l-18-4-148-35-71-17-2 6-10 14-11 12-14 11-14 8-14 6-19 5-7 1h-29l-16-3-15-5-16-8-11-7-4-3-4 2-11 8-14 11-18 14-20 15-15 12-20 15-15 12-56 43-18 14-17 13-18 14-13 10-18 14-17 13-6 5 3 9 5 19 2 14v18l-3 19-6 18-8 16-9 13-11 12-10 9-14 9-14 7-16 5-16 3-22 1-18-2-18-5-13-6-14-8-13-10-13-13-10-14-8-14-7-19-3-14-1-7v-25l3-17 6-18 9-17 9-12 11-12 11-9 15-10 15-7 16-5 19-3h24l17 3 15 5 16 8 14 10 8-6 18-14 39-30 18-14 17-13 18-14 30-23 18-14 39-30 18-14 30-23 18-14 7-5 1-3-5-13-4-18-1-9v-14l2-15 5-19 6-14 9-15 8-10 9-10 13-11 15-9 16-7 15-4 15-2h21l19 3 15 5 16 8 11 7 14 12 7 7 11 15 10 19 6 18 3 16 1 18 15 3 216 52h2l2-5 7-11 13-15 12-10 14-9 15-7 16-5 12-2 21-1 19 2 19 5 16 7 9 5 5 2 10-9 14-11 16-13 14-11 16-13 10-8 16-13 14-11 16-13 14-11 32-26 9-7 16-13 14-11 16-13 10-8 14-11 17-14 13-10 1-3-5-13-4-17-1-7v-25l4-21 7-19 8-15 8-11 9-10 9-9 14-10 16-8 18-6 10-2zm-7 57v1h5v-1zm-4 1 4 1zm38 0m-43 2m63 6m1 1m2 1m1 1m1 1m1 1m1 1m1 1m1 1m1 1m1 1m2 3m1 1m1 1m1 2m1 1m1 2m1 2m1 2m1 2m2 5m2 6 1 2zm-129 23 1 3zm0 4m4 18m7 12m2 2m2 2m12 10m6 4m7 4m-924 143-3 2 9-1v-1zm36 1m-44 2m51 0m5 2m4 2m3 2m3 2m1 1m1 1m1 1m-89 2m-1 1m94 1m1 1m1 1m2 3m1 1m1 2m1 2m1 2m2 3 1 2zm2 5m-120 4m-1 3m124 4 1 2zm0 23v5h1v-5zm-124 5 1 3zm1 5m120 5m-118 1m1 2m1 2m2 4m2 3m3 4m1 2m98 0m-97 1m1 1m1 1m1 1m1 1m1 1m1 1m83 1m408 3v1h5v-1zm27 0m-511 1m480 0 4 1zm36 0m-512 2m521 1m-517 1m519 0m15 9m1 1m-86 1m-1 1m90 1m4 4m1 1m1 1m2 3m4 6m2 3m5 12 1 2zm-127 2m128 0 1 2zm-129 4 1 2zm0 23 1 3zm1 5 1 2zm2 7 1 2zm1 2 1 2zm1 3m1 2m1 1m1 2m1 1m110 1m-109 1m1 1m105 2m-103 1m102 0m-100 2m1 1m1 1m4 3m87 0m-86 1m85 0m-84 1m81 1m-78 1m3 2m2 1m2 1m4 2m3 1m2 1m-928 119v1h5v-1zm-3 1m37 0m20 8m1 1m2 1m1 1m1 1m1 1m3 3m1 1m1 1m1 1m1 1m1 1m1 2m1 1m1 1 1 2zm1 2m1 1 1 2zm1 2 1 2zm1 3m-121 36v5h1v-5zm1 8 1 3z" fill="#1473B9"/>
<path transform="translate(1632,819)" d="m0 0h154l26 1 1 40v866l-1 18-15 1h-165l-1-1v-924z" fill="#00CCFE"/>
<path transform="translate(704,1087)" d="m0 0h149l27 1 1 36v603l-1 17-4 1h-172l-1-1v-656z" fill="#00CCFE"/>
<path transform="translate(1168,1204)" d="m0 0h176v539l-1 1h-175l-1-6v-512z" fill="#FDFDFD"/>
<path transform="translate(236,1448)" d="m0 0h179l1 1v294l-1 1h-179l-1-6v-268z" fill="#FDFDFD"/>
<path transform="translate(1712,300)" d="m0 0h23l6 1v2l4-1 12 5 4 2 7 7 7 6 1 3 2 2 4 6 5 13 1 5v27l-4 14-7 14-11 12-10 7-12 5-10 2h-20l-10-2-12-5-7-5v-2l-4-1-8-7v-2h-2v-2h-2v-2l-3-1-5-10-3-12-1-11 3-21 6-16 7-11 6-7 13-9 11-4h9z" fill="#FDFDFD"/>
<path transform="translate(313,928)" d="m0 0h27l1 3 4-1 12 5 4 2 2 2 5 4 4 2 6 7 1 5 5 6 5 15 2 12v10l-4 17-4 9-5 10-10 10h-2l-5 5-13 6-10 3-7 1h-15l-12-3-12-5-2-1v-2l-5-1-2-4-4-2v-2l-4-2-6-9-5-11-2-9 1-3h-2l-1-4v-17l5-19 4-10 10-13 10-8 13-6 10-1z" fill="#00CCFD"/>
<path transform="translate(1248,684)" d="m0 0h21l13 5 12 6 7 6 6 5 1 3 5 5 4 5 2 5 3 6v5h2l1 17-2 13-7 19-5 7-2 1-6 7-2 1-5 4-15 7-12 3-7 1h-10l-14-3-7-3-8-3v-2l-5-1-2-2-4-2-3-5h-2l-3-3v-3l-2-2-3-5-2-7h-2l-1-5 1-2h-2l-1-4v-22h2l-1-4 2-7 4-11 6-10 8-7 7-8 11-6 9-2z" fill="#00CCFD"/>
<path transform="translate(778,568)" d="m0 0h25l13 3 12 6v2h3l8 8 4 5 6 9 2 6 3 8-1 5h2v23l-1 3-2 9-8 16-2 3h-2l-2 5-4 3h-2l-1 3-16 8-12 3h-21l-14-3-11-5v-2l-4-1-5-5-7-6-4-6v-3h-2l-3-7-3-9 1-3h-2v-30l2-7 4-10 7-10 5-5 8-7 10-5 6-2 8-1z" fill="#FDFDFD"/>
</svg>
